<?xml version="1.0" standalone="no"?>
<!DOCTYPE svg PUBLIC "-//W3C//DTD SVG 20010904//EN"
 "http://www.w3.org/TR/2001/REC-SVG-20010904/DTD/svg10.dtd">
<svg version="1.0" xmlns="http://www.w3.org/2000/svg"
 width="512.000000pt" height="512.000000pt" viewBox="0 0 512.000000 512.000000"
 preserveAspectRatio="xMidYMid meet">
<metadata>
Created by potrace 1.16, written by Peter Selinger 2001-2019
</metadata>
<g transform="translate(0.000000,512.000000) scale(0.100000,-0.100000)"
fill="#000000" stroke="none">
<path d="M2305 5113 c-671 -72 -1279 -393 -1707 -903 -301 -358 -488 -764
-571 -1240 -19 -109 -21 -162 -21 -410 0 -248 2 -301 21 -410 94 -540 320
-987 693 -1374 383 -398 866 -650 1430 -749 109 -19 162 -21 410 -21 313 0
407 10 653 73 882 228 1600 946 1828 1828 63 246 73 340 73 653 0 313 -10 407
-73 653 -228 881 -946 1600 -1828 1828 -227 58 -334 71 -613 74 -140 2 -273 1
-295 -2z m650 -152 c402 -72 750 -222 1073 -463 125 -94 377 -345 471 -471
246 -329 399 -690 468 -1102 26 -157 26 -573 0 -730 -69 -412 -222 -773 -468
-1102 -94 -126 -346 -378 -472 -472 -329 -246 -690 -399 -1102 -468 -157 -26
-573 -26 -730 0 -412 69 -773 222 -1102 468 -126 94 -377 346 -471 471 -246
329 -400 692 -469 1103 -26 157 -26 573 0 730 69 411 223 774 469 1103 93 125
345 377 470 470 367 274 760 429 1238 486 19 2 141 3 270 1 186 -2 260 -7 355
-24z"/>
<path d="M2490 2628 l0 -1753 -535 535 -535 535 -52 -53 -53 -52 623 -623 622
-622 622 622 623 623 -53 52 -52 53 -535 -535 -535 -535 0 1753 0 1752 -70 0
-70 0 0 -1752z"/>
</g>
</svg>
