<?xml version="1.0" standalone="no"?>
<!DOCTYPE svg PUBLIC "-//W3C//DTD SVG 20010904//EN"
 "http://www.w3.org/TR/2001/REC-SVG-20010904/DTD/svg10.dtd">
<svg version="1.0" xmlns="http://www.w3.org/2000/svg"
 width="512.000000pt" height="512.000000pt" viewBox="0 0 512.000000 512.000000"
 preserveAspectRatio="xMidYMid meet">
<metadata>
Created by potrace 1.16, written by Peter Selinger 2001-2019
</metadata>
<g transform="translate(0.000000,512.000000) scale(0.100000,-0.100000)"
fill="#000000" stroke="none">
<path d="M2220 5113 c-189 -19 -424 -73 -606 -138 -219 -78 -518 -246 -698
-393 -107 -87 -247 -224 -328 -320 -40 -48 -75 -89 -79 -92 -3 -3 -34 -48 -70
-100 -35 -52 -66 -97 -69 -100 -7 -7 -21 -33 -93 -169 -93 -173 -157 -342
-207 -541 -53 -214 -64 -312 -65 -580 0 -254 5 -348 25 -438 7 -29 9 -59 6
-67 -2 -7 -1 -15 5 -17 5 -2 11 -19 13 -38 2 -19 6 -42 9 -50 19 -52 28 -91
23 -99 -4 -5 -2 -11 4 -13 5 -1 11 -14 12 -28 2 -14 5 -27 8 -30 8 -7 71 -181
73 -200 1 -8 5 -17 9 -20 8 -6 70 -143 68 -149 -1 -2 2 -7 7 -10 5 -3 29 -42
54 -85 64 -115 71 -126 112 -183 21 -29 38 -54 38 -57 0 -3 9 -16 22 -29 12
-13 48 -55 80 -94 77 -94 258 -272 349 -343 17 -14 41 -34 53 -45 11 -11 23
-20 26 -20 5 0 119 -75 129 -85 3 -3 21 -14 40 -24 19 -11 53 -31 75 -45 66
-41 183 -96 305 -144 157 -61 154 -60 165 -63 6 -1 55 -14 110 -29 132 -34
290 -61 450 -76 155 -14 194 -14 378 2 78 7 156 13 172 13 17 1 32 3 35 6 3 3
47 14 99 23 117 23 296 76 426 128 55 22 105 41 110 42 6 1 12 5 15 8 3 4 39
23 79 44 41 20 93 49 115 63 23 14 47 25 53 25 7 0 13 3 13 7 0 4 38 32 83 63
427 283 782 754 947 1254 89 272 123 485 124 778 0 295 -36 524 -123 785 -196
586 -610 1081 -1159 1383 -264 146 -568 244 -882 283 -103 13 -441 17 -540 7z
m462 -375 c15 -5 31 -7 36 -4 9 6 175 -20 202 -31 8 -3 18 -6 22 -5 3 1 30 -6
60 -15 29 -9 56 -18 61 -19 4 -1 9 -3 12 -4 3 -1 10 -4 15 -5 6 -1 11 -3 13
-4 1 -2 12 -4 24 -7 69 -13 302 -122 434 -204 93 -58 226 -157 289 -216 25
-23 59 -55 76 -70 92 -85 284 -325 276 -346 -1 -5 2 -8 7 -8 21 0 197 -332
186 -351 -4 -5 -2 -9 3 -9 9 0 41 -74 46 -103 1 -6 5 -18 9 -24 5 -7 5 -17 2
-23 -3 -5 -2 -10 3 -10 7 0 32 -83 38 -125 0 -5 4 -17 7 -25 12 -31 28 -130
23 -139 -4 -5 -2 -12 4 -16 6 -3 10 -18 10 -33 -1 -15 4 -63 9 -107 12 -101
14 -292 2 -299 -5 -3 -7 -20 -5 -38 5 -46 -17 -208 -28 -208 -5 0 -6 -5 -2
-11 8 -13 -16 -129 -26 -129 -5 0 -7 -8 -6 -17 3 -16 -5 -50 -21 -93 -3 -8 -8
-23 -9 -33 -9 -42 -66 -177 -76 -177 -6 0 -9 -3 -5 -6 9 -9 -53 -138 -117
-243 -280 -459 -723 -798 -1235 -942 -474 -133 -995 -90 -1436 119 -443 210
-786 544 -1003 978 -145 289 -213 588 -213 927 0 326 57 583 197 883 124 268
341 547 569 731 102 83 285 204 296 197 5 -3 9 0 9 6 0 18 324 165 340 155 5
-3 10 -1 12 5 1 5 14 11 28 12 14 2 28 7 31 11 3 5 22 9 41 10 20 1 34 5 32 8
-10 17 316 68 433 68 47 0 87 1 89 3 7 8 211 -4 236 -14z"/>
<path d="M2210 3743 c0 -5 174 -182 387 -395 l388 -388 -903 0 -902 0 0 -300
0 -300 907 0 908 0 -395 -395 -395 -395 290 0 290 0 545 545 545 545 -545 545
-545 545 -287 0 c-159 0 -288 -3 -288 -7z"/>
</g>
</svg>
